<svg width="847.5" height="820" xmlns="http://www.w3.org/2000/svg" version="1.1"><g transform="translate(0,10)"><g><path class="link" d="M6,72.22145397076254C423.75,72.22145397076254 423.75,127.22145397076254 841.5,127.22145397076254" style="stroke-width: 144.443; fill: none; stroke: rgb(227, 10, 96); stroke-opacity: 0.4;"><title>6647</title></path><path class="link" d="M6,169.03101540892928C423.75,169.03101540892928 423.75,487.1266297905966 841.5,487.1266297905966" style="stroke-width: 49.1762; fill: none; stroke: rgb(227, 10, 96); stroke-opacity: 0.4;"><title>2263</title></path><path class="link" d="M6,491.4124851837219C423.75,491.4124851837219 423.75,313.70209403397865 841.5,313.70209403397865" style="stroke-width: 35.5946; fill: none; stroke: rgb(235, 189, 4); stroke-opacity: 0.4;"><title>1638</title></path><path class="link" d="M6,318.11043065981823C423.75,318.11043065981823 423.75,228.4857763729751 841.5,228.4857763729751" style="stroke-width: 35.4425; fill: none; stroke: rgb(18, 209, 14); stroke-opacity: 0.4;"><title>1631</title></path><path class="link" d="M6,649.4271039114975C423.75,649.4271039114975 423.75,391.32358751481627 841.5,391.32358751481627" style="stroke-width: 33.9431; fill: none; stroke: rgb(240, 104, 16); stroke-opacity: 0.4;"><title>1562</title></path><path class="link" d="M6,431.9320426708811C423.75,431.9320426708811 423.75,281.97550375345713 841.5,281.97550375345713" style="stroke-width: 27.8586; fill: none; stroke: rgb(232, 15, 223); stroke-opacity: 0.4;"><title>1282</title></path><path class="link" d="M6,594.7382457526669C423.75,594.7382457526669 423.75,361.3897668905571 841.5,361.3897668905571" style="stroke-width: 25.9245; fill: none; stroke: rgb(139, 105, 191); stroke-opacity: 0.4;"><title>1193</title></path><path class="link" d="M6,205.15804030027655C423.75,205.15804030027655 423.75,621.5013828526273 841.5,621.5013828526273" style="stroke-width: 23.0778; fill: none; stroke: rgb(227, 10, 96); stroke-opacity: 0.4;"><title>1062</title></path><path class="link" d="M6,370.96305807981037C423.75,370.96305807981037 423.75,257.1266297905966 841.5,257.1266297905966" style="stroke-width: 21.8392; fill: none; stroke: rgb(123, 6, 240); stroke-opacity: 0.4;"><title>1005</title></path><path class="link" d="M6,537.5177795337811C423.75,537.5177795337811 423.75,339.96345318056103 841.5,339.96345318056103" style="stroke-width: 16.9281; fill: none; stroke: rgb(13, 206, 232); stroke-opacity: 0.4;"><title>779</title></path><path class="link" d="M6,687.5029632556302C423.75,687.5029632556302 423.75,416.5310154089293 841.5,416.5310154089293" style="stroke-width: 16.4718; fill: none; stroke: rgb(191, 105, 105); stroke-opacity: 0.4;"><title>758</title></path><path class="link" d="M6,272.14638482813115C423.75,272.14638482813115 423.75,640.8524298696168 841.5,640.8524298696168" style="stroke-width: 15.6243; fill: none; stroke: rgb(6, 59, 245); stroke-opacity: 0.4;"><title>719</title></path><path class="link" d="M6,257.5434610825761C423.75,257.5434610825761 423.75,518.5055314105097 841.5,518.5055314105097" style="stroke-width: 13.5816; fill: none; stroke: rgb(6, 59, 245); stroke-opacity: 0.4;"><title>625</title></path><path class="link" d="M6,388.65171868826553C423.75,388.65171868826553 423.75,539.5624259186093 841.5,539.5624259186093" style="stroke-width: 13.5381; fill: none; stroke: rgb(123, 6, 240); stroke-opacity: 0.4;"><title>623</title></path><path class="link" d="M6,223.064006321612C423.75,223.064006321612 423.75,707.558277360727 841.5,707.558277360727" style="stroke-width: 12.7341; fill: none; stroke: rgb(227, 10, 96); stroke-opacity: 0.4;"><title>586</title></path><path class="link" d="M6,714.9417226392729C423.75,714.9417226392729 423.75,431.05788225997634 841.5,431.05788225997634" style="stroke-width: 12.582; fill: none; stroke: rgb(174, 191, 105); stroke-opacity: 0.4;"><title>579</title></path><path class="link" d="M6,552.1967601738444C423.75,552.1967601738444 423.75,572.1256420387199 841.5,572.1256420387199" style="stroke-width: 12.4299; fill: none; stroke: rgb(13, 206, 232); stroke-opacity: 0.4;"><title>572</title></path><path class="link" d="M6,451.8589490320032C423.75,451.8589490320032 423.75,552.329118925326 841.5,552.329118925326" style="stroke-width: 11.9953; fill: none; stroke: rgb(232, 15, 223); stroke-opacity: 0.4;"><title>552</title></path><path class="link" d="M6,245.09186092453575C423.75,245.09186092453575 423.75,205.1037139470565 841.5,205.1037139470565" style="stroke-width: 11.3216; fill: none; stroke: rgb(6, 59, 245); stroke-opacity: 0.4;"><title>521</title></path><path class="link" d="M6,742.6955748715923C423.75,742.6955748715923 423.75,442.83583563808776 841.5,442.83583563808776" style="stroke-width: 10.9739; fill: none; stroke: rgb(139, 191, 105); stroke-opacity: 0.4;"><title>505</title></path><path class="link" d="M6,285.1738443303042C423.75,285.1738443303042 423.75,719.1406558672461 841.5,719.1406558672461" style="stroke-width: 10.4307; fill: none; stroke: rgb(6, 59, 245); stroke-opacity: 0.4;"><title>480</title></path><path class="link" d="M6,563.0511655472146C423.75,563.0511655472146 423.75,672.5138285262742 841.5,672.5138285262742" style="stroke-width: 9.27894; fill: none; stroke: rgb(13, 206, 232); stroke-opacity: 0.4;"><title>427</title></path><path class="link" d="M6,400.0276570525484C423.75,400.0276570525484 423.75,657.6175424733307 841.5,657.6175424733307" style="stroke-width: 9.21375; fill: none; stroke: rgb(123, 6, 240); stroke-opacity: 0.4;"><title>424</title></path><path class="link" d="M6,513.0017779533782C423.75,513.0017779533782 423.75,562.1187277755828 841.5,562.1187277755828" style="stroke-width: 7.58396; fill: none; stroke: rgb(235, 189, 4); stroke-opacity: 0.4;"><title>349</title></path><path class="link" d="M6,339.5802054523903C423.75,339.5802054523903 423.75,529.0448439352035 841.5,529.0448439352035" style="stroke-width: 7.49704; fill: none; stroke: rgb(18, 209, 14); stroke-opacity: 0.4;"><title>345</title></path><path class="link" d="M6,616.0341762149349C423.75,616.0341762149349 423.75,680.010865270644 841.5,680.010865270644" style="stroke-width: 5.71513; fill: none; stroke: rgb(139, 105, 191); stroke-opacity: 0.4;"><title>263</title></path><path class="link" d="M6,610.4385618332675C423.75,610.4385618332675 423.75,581.0786250493876 841.5,581.0786250493876" style="stroke-width: 5.4761; fill: none; stroke: rgb(139, 105, 191); stroke-opacity: 0.4;"><title>252</title></path><path class="link" d="M6,723.4492295535362C423.75,723.4492295535362 423.75,590.6183326748321 841.5,590.6183326748321" style="stroke-width: 4.43303; fill: none; stroke: rgb(174, 191, 105); stroke-opacity: 0.4;"><title>204</title></path><path class="link" d="M6,345.5017779533781C423.75,345.5017779533781 423.75,650.8376135914658 841.5,650.8376135914658" style="stroke-width: 4.34611; fill: none; stroke: rgb(18, 209, 14); stroke-opacity: 0.4;"><title>200</title></path><path class="link" d="M6,569.7333069932832C423.75,569.7333069932832 423.75,734.5041485578822 841.5,734.5041485578822" style="stroke-width: 4.08534; fill: none; stroke: rgb(13, 206, 232); stroke-opacity: 0.4;"><title>188</title></path><path class="link" d="M6,459.67107862504946C423.75,459.67107862504946 423.75,664.0389174239431 841.5,664.0389174239431" style="stroke-width: 3.629; fill: none; stroke: rgb(232, 15, 223); stroke-opacity: 0.4;"><title>167</title></path><path class="link" d="M6,620.6736467799288C423.75,620.6736467799288 423.75,738.3287238245751 841.5,738.3287238245751" style="stroke-width: 3.56381; fill: none; stroke: rgb(139, 105, 191); stroke-opacity: 0.4;"><title>164</title></path><path class="link" d="M6,406.31864875543266C423.75,406.31864875543266 423.75,728.4087317265902 841.5,728.4087317265902" style="stroke-width: 3.36823; fill: none; stroke: rgb(123, 6, 240); stroke-opacity: 0.4;"><title>155</title></path><path class="link" d="M6,749.6384828131173C423.75,749.6384828131173 423.75,594.290794152509 841.5,594.290794152509" style="stroke-width: 2.91189; fill: none; stroke: rgb(139, 191, 105); stroke-opacity: 0.4;"><title>134</title></path><path class="link" d="M6,767.1572500987752C423.75,767.1572500987752 423.75,687.736072698538 841.5,687.736072698538" style="stroke-width: 2.65113; fill: none; stroke: rgb(105, 191, 139); stroke-opacity: 0.4;"><title>122</title></path><path class="link" d="M6,348.8591465823785C423.75,348.8591465823785 423.75,725.5403002765704 841.5,725.5403002765704" style="stroke-width: 2.36863; fill: none; stroke: rgb(18, 209, 14); stroke-opacity: 0.4;"><title>109</title></path><path class="link" d="M6,696.8905570920585C423.75,696.8905570920585 423.75,587.2500987751877 841.5,587.2500987751877" style="stroke-width: 2.30344; fill: none; stroke: rgb(191, 105, 105); stroke-opacity: 0.4;"><title>106</title></path><path class="link" d="M6,667.5395100750692C423.75,667.5395100750692 423.75,584.9575266693007 841.5,584.9575266693007" style="stroke-width: 2.28171; fill: none; stroke: rgb(240, 104, 16); stroke-opacity: 0.4;"><title>105</title></path><path class="link" d="M6,462.5503753457132C423.75,462.5503753457132 423.75,731.1576451995259 841.5,731.1576451995259" style="stroke-width: 2.12959; fill: none; stroke: rgb(232, 15, 223); stroke-opacity: 0.4;"><title>98</title></path><path class="link" d="M6,517.8042275780325C423.75,517.8042275780325 423.75,666.8638877913868 841.5,666.8638877913868" style="stroke-width: 2.02094; fill: none; stroke: rgb(235, 189, 4); stroke-opacity: 0.4;"><title>93</title></path><path class="link" d="M6,763.962860529435C423.75,763.962860529435 423.75,449.2789411299882 841.5,449.2789411299882" style="stroke-width: 1.91229; fill: none; stroke: rgb(105, 191, 139); stroke-opacity: 0.4;"><title>88</title></path><path class="link" d="M6,797.3597392335046C423.75,797.3597392335046 423.75,599.0606479652312 841.5,599.0606479652312" style="stroke-width: 1.80363; fill: none; stroke: rgb(105, 191, 105); stroke-opacity: 0.4;"><title>83</title></path><path class="link" d="M6,784.4369814302647C423.75,784.4369814302647 423.75,743.4571315685499 841.5,743.4571315685499" style="stroke-width: 1.5646; fill: none; stroke: rgb(105, 191, 174); stroke-opacity: 0.4;"><title>72</title></path><path class="link" d="M6,781.7532595811932C423.75,781.7532595811932 423.75,597.409126827341 841.5,597.409126827341" style="stroke-width: 1.49941; fill: none; stroke: rgb(105, 191, 174); stroke-opacity: 0.4;"><title>69</title></path><path class="link" d="M6,769.2107862504938C423.75,769.2107862504938 423.75,741.9468589490319 841.5,741.9468589490319" style="stroke-width: 1.45595; fill: none; stroke: rgb(105, 191, 139); stroke-opacity: 0.4;"><title>67</title></path><path class="link" d="M6,751.8006716712762C423.75,751.8006716712762 423.75,685.7042670881074 841.5,685.7042670881074" style="stroke-width: 1.41249; fill: none; stroke: rgb(139, 191, 105); stroke-opacity: 0.4;"><title>65</title></path><path class="link" d="M6,795.8386013433425C423.75,795.8386013433425 423.75,451.9192018964837 841.5,451.9192018964837" style="stroke-width: 1.23864; fill: none; stroke: rgb(105, 191, 105); stroke-opacity: 0.4;"><title>57</title></path><path class="link" d="M6,726.2741999209799C423.75,726.2741999209799 423.75,684.3895693401817 841.5,684.3895693401817" style="stroke-width: 1.21691; fill: none; stroke: rgb(174, 191, 105); stroke-opacity: 0.4;"><title>56</title></path><path class="link" d="M6,783.0788225997629C423.75,783.0788225997629 423.75,689.6374950612405 841.5,689.6374950612405" style="stroke-width: 1.15172; fill: none; stroke: rgb(105, 191, 174); stroke-opacity: 0.4;"><title>53</title></path><path class="link" d="M6,780.4711576451996C423.75,780.4711576451996 423.75,450.76748320821815 841.5,450.76748320821815" style="stroke-width: 1.0648; fill: none; stroke: rgb(105, 191, 174); stroke-opacity: 0.4;"><title>49</title></path><path class="link" d="M6,798.7504938759383C423.75,798.7504938759383 423.75,690.702291584354 841.5,690.702291584354" style="stroke-width: 1; fill: none; stroke: rgb(105, 191, 105); stroke-opacity: 0.4;"><title>45</title></path><path class="link" d="M6,765.3753457131569C423.75,765.3753457131569 423.75,596.2030817858554 841.5,596.2030817858554" style="stroke-width: 1; fill: none; stroke: rgb(105, 191, 139); stroke-opacity: 0.4;"><title>42</title></path><path class="link" d="M6,799.6197155274596C423.75,799.6197155274596 423.75,744.6197155274594 841.5,744.6197155274594" style="stroke-width: 1; fill: none; stroke: rgb(105, 191, 105); stroke-opacity: 0.4;"><title>35</title></path><path class="link" d="M6,752.7568154879494C423.75,752.7568154879494 423.75,740.9689845910707 841.5,740.9689845910707" style="stroke-width: 1; fill: none; stroke: rgb(139, 191, 105); stroke-opacity: 0.4;"><title>23</title></path><path class="link" d="M6,698.2813117344923C423.75,698.2813117344923 423.75,683.5420782299486 841.5,683.5420782299486" style="stroke-width: 1; fill: none; stroke: rgb(191, 105, 105); stroke-opacity: 0.4;"><title>22</title></path><path class="link" d="M6,668.897668905571C423.75,668.897668905571 423.75,683.0857368628999 841.5,683.0857368628999" style="stroke-width: 1; fill: none; stroke: rgb(240, 104, 16); stroke-opacity: 0.4;"><title>20</title></path><path class="link" d="M6,727.0456341367048C423.75,727.0456341367048 423.75,740.5561043065981 841.5,740.5561043065981" style="stroke-width: 1; fill: none; stroke: rgb(174, 191, 105); stroke-opacity: 0.4;"><title>15</title></path><path class="link" d="M6,518.93421572501C423.75,518.93421572501 423.75,732.3419596997234 841.5,732.3419596997234" style="stroke-width: 1; fill: none; stroke: rgb(235, 189, 4); stroke-opacity: 0.4;"><title>11</title></path><path class="link" d="M6,669.1910312129594C423.75,669.1910312129594 423.75,740.1866851047017 841.5,740.1866851047017" style="stroke-width: 1; fill: none; stroke: rgb(240, 104, 16); stroke-opacity: 0.4;"><title>7</title></path><path class="link" d="M6,698.5855393125247C423.75,698.5855393125247 423.75,740.3279336230738 841.5,740.3279336230738" style="stroke-width: 1; fill: none; stroke: rgb(191, 105, 105); stroke-opacity: 0.4;"><title>6</title></path></g><g><g class="node" transform="translate(0,708.6507309363888)"><rect height="18.557882259976296" width="6"><title>'christian'
854</title></rect><text x="12" y="9.278941129988148" dy=".35em" text-anchor="start" style="font-size: 11px; font-family: Arial, Helvetica; pointer-events: none;">'christian'</text></g><g class="node" transform="translate(0,418.0027657052549)"><rect height="45.61240616357171" width="6"><title>'country'
2,099</title></rect><text x="12" y="22.806203081785856" dy=".35em" text-anchor="start" style="font-size: 11px; font-family: Arial, Helvetica; pointer-events: none;">'country'</text></g><g class="node" transform="translate(0,737.208613196365)"><rect height="15.798103516396681" width="6"><title>'folk'
727</title></rect><text x="12" y="7.899051758198341" dy=".35em" text-anchor="start" style="font-size: 11px; font-family: Arial, Helvetica; pointer-events: none;">'folk'</text></g><g class="node" transform="translate(0,581.775977874358)"><rect height="40.67957329118925" width="6"><title>'hip'
1,872</title></rect><text x="12" y="20.339786645594625" dy=".35em" text-anchor="start" style="font-size: 11px; font-family: Arial, Helvetica; pointer-events: none;">'hip'</text></g><g class="node" transform="translate(0,632.4555511655473)"><rect height="36.81153694192019" width="6"><title>'house'
1,694</title></rect><text x="12" y="18.405768470960094" dy=".35em" text-anchor="start" style="font-size: 11px; font-family: Arial, Helvetica; pointer-events: none;">'house'</text></g><g class="node" transform="translate(0,473.6151718688266)"><rect height="45.438561833267485" width="6"><title>'indie'
2,091</title></rect><text x="12" y="22.719280916633743" dy=".35em" text-anchor="start" style="font-size: 11px; font-family: Arial, Helvetica; pointer-events: none;">'indie'</text></g><g class="node" transform="translate(0,779.9387593836428)"><rect height="5.280521532990913" width="6"><title>'jazz'
243</title></rect><text x="12" y="2.6402607664954565" dy=".35em" text-anchor="start" style="font-size: 11px; font-family: Arial, Helvetica; pointer-events: none;">'jazz'</text></g><g class="node" transform="translate(0,360.0434610825761)"><rect height="47.959304622678786" width="6"><title>'latin'
2,207</title></rect><text x="12" y="23.979652311339393" dy=".35em" text-anchor="start" style="font-size: 11px; font-family: Arial, Helvetica; pointer-events: none;">'latin'</text></g><g class="node" transform="translate(0,529.0537337020941)"><rect height="42.72224417226393" width="6"><title>'metal'
1,966</title></rect><text x="12" y="21.361122086131964" dy=".35em" text-anchor="start" style="font-size: 11px; font-family: Arial, Helvetica; pointer-events: none;">'metal'</text></g><g class="node" transform="translate(0,679.2670881074674)"><rect height="19.383642828921374" width="6"><title>'mexican'
892</title></rect><text x="12" y="9.691821414460687" dy=".35em" text-anchor="start" style="font-size: 11px; font-family: Arial, Helvetica; pointer-events: none;">'mexican'</text></g><g class="node" transform="translate(0,0)"><rect height="229.43105491900434" width="6"><title>'pop'
10,558</title></rect><text x="12" y="114.71552745950217" dy=".35em" text-anchor="start" style="font-size: 11px; font-family: Arial, Helvetica; pointer-events: none;">'pop'</text></g><g class="node" transform="translate(0,763.0067167127618)"><rect height="6.932042670881074" width="6"><title>'punk'
319</title></rect><text x="12" y="3.466021335440537" dy=".35em" text-anchor="start" style="font-size: 11px; font-family: Arial, Helvetica; pointer-events: none;">'punk'</text></g><g class="node" transform="translate(0,300.38917423943104)"><rect height="49.654286843145" width="6"><title>'rap'
2,285</title></rect><text x="12" y="24.8271434215725" dy=".35em" text-anchor="start" style="font-size: 11px; font-family: Arial, Helvetica; pointer-events: none;">'rap'</text></g><g class="node" transform="translate(0,239.43105491900434)"><rect height="50.95811932042671" width="6"><title>'rock'
2,345</title></rect><text x="12" y="25.479059660213355" dy=".35em" text-anchor="start" style="font-size: 11px; font-family: Arial, Helvetica; pointer-events: none;">'rock'</text></g><g class="node" transform="translate(0,795.2192809166337)"><rect height="4.780719083366258" width="6"><title>'soul'
220</title></rect><text x="12" y="2.390359541683129" dy=".35em" text-anchor="start" style="font-size: 11px; font-family: Arial, Helvetica; pointer-events: none;">'soul'</text></g><g class="node" transform="translate(841.5,701.1912287633346)"><rect height="43.80877123666535" width="6" style="fill: rgb(102, 102, 102);"><title>(1996, 2001]
2,016</title></rect><text x="-6" y="21.904385618332675" dy=".35em" text-anchor="end" style="font-size: 11px; font-family: Arial, Helvetica; pointer-events: none;">(1996, 2001]</text></g><g class="node" transform="translate(841.5,609.9624654286843)"><rect height="81.22876333465034" width="6" style="fill: rgb(102, 102, 102);"><title>(2001, 2006]
3,738</title></rect><text x="-6" y="40.61438166732517" dy=".35em" text-anchor="end" style="font-size: 11px; font-family: Arial, Helvetica; pointer-events: none;">(2001, 2006]</text></g><g class="node" transform="translate(841.5,462.5385223231924)"><rect height="137.4239431054919" width="6" style="fill: rgb(102, 102, 102);"><title>(2006, 2011]
6,324</title></rect><text x="-6" y="68.71197155274595" dy=".35em" text-anchor="end" style="font-size: 11px; font-family: Arial, Helvetica; pointer-events: none;">(2006, 2011]</text></g><g class="node" transform="translate(841.5,55)"><rect height="397.5385223231924" width="6" style="fill: rgb(102, 102, 102);"><title>(2011, 2016]
18,294</title></rect><text x="-6" y="198.7692611615962" dy=".35em" text-anchor="end" style="font-size: 11px; font-family: Arial, Helvetica; pointer-events: none;">(2011, 2016]</text></g></g></g></svg>